SplineFontDB: 3.2
FontName: Untitled1
FullName: Untitled1
FamilyName: Untitled1
Weight: Regular
Copyright: Copyright (c) 2023, alifeee
UComments: "2023-12-3: Created with FontForge (http://fontforge.org)"
Version: 001.000
ItalicAngle: 0
UnderlinePosition: -100
UnderlineWidth: 50
Ascent: 819
Descent: 205
InvalidEm: 0
LayerCount: 2
Layer: 0 0 "Back" 1
Layer: 1 0 "Fore" 0
XUID: [1021 879 838727349 2897]
OS2Version: 0
OS2_WeightWidthSlopeOnly: 0
OS2_UseTypoMetrics: 1
CreationTime: 1701627778
ModificationTime: 1701874654
OS2TypoAscent: 0
OS2TypoAOffset: 1
OS2TypoDescent: 0
OS2TypoDOffset: 1
OS2TypoLinegap: 0
OS2WinAscent: 0
OS2WinAOffset: 1
OS2WinDescent: 0
OS2WinDOffset: 1
HheadAscent: 0
HheadAOffset: 1
HheadDescent: 0
HheadDOffset: 1
OS2Vendor: 'PfEd'
MarkAttachClasses: 1
DEI: 91125
Encoding: ISO8859-1
UnicodeInterp: none
NameList: AGL For New Fonts
DisplaySize: -48
AntiAlias: 1
FitToEm: 0
WinInfo: 44 22 7
BeginPrivate: 0
EndPrivate
BeginChars: 256 27

StartChar: A
Encoding: 65 65 0
Width: 714
Flags: HW
LayerCount: 2
Fore
SplineSet
297.12890625 382.62109375 m 1049
297.950195312 384.700195312 m 25
 446.732421875 393.701171875 l 25
 375.108398438 604.260742188 l 25
 297.950195312 384.700195312 l 25
260 807 m 1
 500.705078125 797.944335938 l 1
 708.705078125 1.9443359375 l 1
 511.705078125 1.9443359375 l 1
 440.416992188 213.465820312 l 1
 264.94921875 211.1640625 l 1
 208.014648438 1.4033203125 l 1
 0.705078125 1.9443359375 l 1
 260 807 l 1
EndSplineSet
EndChar

StartChar: B
Encoding: 66 66 1
Width: 570
Flags: HW
LayerCount: 2
Fore
SplineSet
181 157 m 17
 280.056640625 161.579101562 350.887695312 168.865234375 347 250 c 0
 343.325195312 326.6796875 293.38671875 343.189453125 181 334 c 9
 181 157 l 17
176 530 m 17
 253 529.774414062 298.318359375 540 298 613 c 0
 297.541992188 718.014648438 232 702 178 702 c 9
 176 530 l 17
27 807 m 1
 284 810 l 2
 358 810.864257812 445.221679688 726.556640625 446 637 c 0
 446.84765625 539.46875 407.927734375 514 381 477 c 1
 499.072265625 422.681640625 552.482421875 425 551 276 c 0
 549.438476562 119.004882812 382.959960938 10.2587890625 207 7 c 2
 45 4 l 25
 27 807 l 1
EndSplineSet
EndChar

StartChar: C
Encoding: 67 67 2
Width: 618
Flags: HW
LayerCount: 2
Back
Fore
SplineSet
469 306 m 17
 424 252 402.006023878 190 319 190 c 0
 246 190 183 290 182 409 c 0
 181.235136456 500.018761713 246 654 361 653 c 0
 421.072682048 652.477628852 450 634 477 604 c 9
 566 693 l 17
 458 775 402 819 316 821 c 0
 262.014596567 822.255474498 152.73046875 795.9140625 102 717 c 0
 39 619 14 434 14 333 c 0
 14 216 109 -7 293 -7 c 0
 405.040039062 -7 530 130 608 223 c 1
 469 306 l 17
EndSplineSet
EndChar

StartChar: D
Encoding: 68 68 3
Width: 502
Flags: HW
LayerCount: 2
Back
Fore
SplineSet
170 607 m 25
 261 608 l 18
 299.0390625 608.41796875 336.568359375 529.498046875 338 467 c 0
 341 336 250 219 215 219 c 10
 183 219 l 1
 170 607 l 25
18 0 m 25
 206 1 l 2
 431.036132812 2.197265625 481 189 481 346 c 10
 481 491 l 18
 481 719.950195312 377.495117188 816 234 816 c 10
 18 816 l 1
 18 0 l 25
EndSplineSet
EndChar

StartChar: E
Encoding: 69 69 4
Width: 578
Flags: HW
LayerCount: 2
Back
Fore
SplineSet
242 288 m 9
 242 238 l 1
 317.346679688 226.483398438 390.228515625 229.771484375 455 238 c 1
 435 23 l 26
 433 3 413 -12 392 -11 c 0
 359.6484375 -9.458984375 345.999023438 6.216796875 313 6 c 2
 8 4 l 25
 49 820 l 17
 223.92578125 803.237304688 396.056640625 799.515625 563 820 c 1
 539.681640625 748.583984375 532.48046875 679.815429688 525 611 c 9
 255 587 l 17
 253.693359375 540.303710938 256.708984375 491.721679688 244 450 c 1
 395 450 l 17
 370 395 370 295 370 295 c 2
 369.188476562 289.969726562 365 272 352 272 c 0
 338 272 338.96484375 291.462890625 326 291 c 2
 323.041015625 293.162109375 264 294 242 288 c 9
EndSplineSet
EndChar

StartChar: F
Encoding: 70 70 5
Width: 590
Flags: HW
LayerCount: 2
Back
Fore
SplineSet
30 814 m 29
 568 818 l 29
 571 608 l 22
 571.456641502 576.035094879 502.090702154 573.317526056 455 574 c 4
 386 575 346 582 276 587 c 29
 260 485 l 29
 303 487 364.480797595 508.557607216 371 489 c 4
 385 447 373 384 362 346 c 4
 354.846679688 321.2890625 323.788303812 308.674047867 285 309 c 4
 267.196134797 309.149612313 257 311 239 312 c 29
 235 31 l 30
 235 -1 192 -1 160 -5 c 28
 128 -9 112 9 79 12 c 28
 55 14 41 10 17 8 c 29
 30 814 l 29
EndSplineSet
EndChar

StartChar: G
Encoding: 71 71 6
Width: 648
Flags: HW
LayerCount: 2
Back
Fore
SplineSet
501 597 m 9
 615 721 l 1
 521 777 433.53937193 823.405691482 307 821 c 0
 44 816 10.1221341134 478.997909763 9 417 c 0
 5 196 102.008051177 3.19650045694 304 5 c 0
 528 7 625 151 614 327 c 26
 612 441 l 1
 321 444 l 1
 296 274 l 25
 429 272 l 1
 422 235 368 181 320 183 c 0
 236.049036348 186.497956819 185.865234375 302.725585938 188 402 c 0
 190 495 248 638 395 634 c 0
 472.029893211 631.903948484 476 630 501 597 c 9
EndSplineSet
EndChar

StartChar: H
Encoding: 72 72 7
Width: 593
Flags: HW
LayerCount: 2
Back
Fore
SplineSet
252 467 m 9
 402 466 l 17
 394 579 379.371611219 690.396687452 411 812 c 1
 462.588704943 804.822625368 508.577937333 808.844140834 555 812 c 1
 581.341041232 540.78111622 554 263 568 0 c 1
 401 0 l 1
 397 279 l 1
 237 283 l 25
 242 -1 l 1
 31 0 l 25
 8 799 l 1
 88 829 162 820 246 817 c 1
 239 696 222 568 252 467 c 9
EndSplineSet
EndChar

StartChar: I
Encoding: 73 73 8
Width: 492
Flags: HW
LayerCount: 2
Back
Fore
SplineSet
168.822265625 659.431640625 m 25
 134.466796875 181.661132812 l 25
 49.9296875 204.141601562 l 18
 29.8671875 209.4765625 10.431640625 197.940429688 10.2177734375 183.09375 c 10
 8.11328125 36.83203125 l 17
 162.622070312 4.9052734375 312.75 1.578125 461.952148438 4.2978515625 c 9
 467.873046875 174.33984375 l 18
 467.999023438 177.950195312 465.469726562 187.924804688 452.90625 188.515625 c 10
 315 195 l 17
 321.083984375 353.997070312 314.9375 513.470703125 342.91796875 667.243164062 c 9
 390.161132812 668.662109375 451.333984375 653.895507812 464.479492188 670.026367188 c 0
 482.178710938 691.74609375 486.9921875 807.71484375 463.44140625 814.521484375 c 0
 457.59765625 816.209960938 432.681640625 818.868164062 412.740234375 820.385742188 c 26
 51.251953125 840.876953125 l 18
 38.7265625 841.586914062 29.9619140625 819.37890625 28.73046875 808.4921875 c 10
 13.423828125 673.264648438 l 18
 11.994140625 660.627929688 19.1611328125 661.124023438 29.5400390625 661.005859375 c 10
 168.822265625 659.431640625 l 25
EndSplineSet
EndChar

StartChar: J
Encoding: 74 74 9
Width: 634
Flags: HW
LayerCount: 2
Back
Fore
SplineSet
208 278 m 1
 151.113689702 268.471565939 90.2687635162 267.4421191 38 248 c 1
 53 82 147.246119438 1.37285506707 284 -2 c 0
 369.514676036 -4.10910730424 462.534666907 91.870994775 460 147 c 2
 460 147 464 504 436 669 c 1
 503.818536877 668.508362715 563.834799464 673.760255836 613 687 c 9
 616 831 l 17
 399 810 42 810 42 810 c 2
 31.2538274466 809.606847346 8.873046875 776.078125 10 761 c 2
 16 667 l 1
 99 682.156210928 182 672.447275924 265 666 c 1
 278 292 l 18
 279.504882812 235.552734375 313 152 269 153 c 0
 215.079101562 154.225585938 223 224 208 278 c 1
EndSplineSet
EndChar

StartChar: K
Encoding: 75 75 10
Width: 711
Flags: HW
LayerCount: 2
Back
Fore
SplineSet
21 806 m 25
 238 810 l 25
 248 616 l 25
 387 815 l 25
 557 816 l 25
 340 421 l 1
 432.859075438 338.671335179 693.941463415 50.8731707317 694 49 c 2
 695 17 l 1
 482 11 l 1
 439 108 350.71615539 203.821579169 239 270 c 9
 258 4 l 17
 183.258551938 11.5235617351 109.094795545 15.0032324403 37 4 c 9
 21 806 l 25
EndSplineSet
EndChar

StartChar: L
Encoding: 76 76 11
Width: 623
Flags: HW
LayerCount: 2
Back
Fore
SplineSet
16.8046875 806.625976562 m 9
 190.159179688 800.266601562 l 17
 189.629882812 606.35546875 161.5546875 413.766601562 199.489257812 218.008789062 c 1
 328.9453125 215.088867188 455.729492188 216.447265625 580.326171875 221.310546875 c 1
 601.922851562 139.822265625 604.224609375 65.14453125 596.97265625 -4.1669921875 c 1
 414.34765625 13.4306640625 215.032226562 30.849609375 27.3544921875 4.5380859375 c 1
 35.1494140625 269.068359375 12.6318359375 539.631835938 16.8046875 806.625976562 c 9
EndSplineSet
EndChar

StartChar: M
Encoding: 77 77 12
Width: 1221
Flags: HW
LayerCount: 2
Back
Fore
SplineSet
255.165039062 12.50390625 m 1
 340.677734375 185.954101562 372.75390625 375.442382812 465.3671875 558.588867188 c 1
 529.872070312 484.614257812 560.53515625 396.104492188 601 307 c 9
 770.889648438 313.424804688 l 17
 770.793945312 408.166992188 820.631835938 473.510742188 873.94921875 536.805664062 c 1
 898.131835938 356.250976562 922.247070312 175.68359375 962.725585938 -1.45703125 c 9
 1204.62695312 6.537109375 l 17
 1157.90722656 269.349609375 1088.73730469 534.088867188 1023.16601562 798.51953125 c 9
 767.141601562 812.852539062 l 17
 736.80078125 739.752929688 699.670898438 672.928710938 661.192382812 607.3515625 c 1
 616.938476562 657.068359375 607.216796875 737.662109375 582.319335938 804.685546875 c 1
 491.946289062 816.369140625 403.231445312 822.516601562 316.05859375 823.516601562 c 1
 188.15625 535.826171875 153.244140625 270.771484375 15.8642578125 12.6474609375 c 1
 88.36328125 -15.794921875 161.982421875 13.888671875 255.165039062 12.50390625 c 1
EndSplineSet
EndChar

StartChar: N
Encoding: 78 78 13
Width: 668
Flags: HW
LayerCount: 2
Back
Fore
SplineSet
218 381 m 1
 271 265 321 106 412 -14 c 9
 624 1 l 17
 645 261 612 489 648 787 c 1
 585.427123468 791.947901852 518.947753269 812.354278804 461 799 c 1
 427.868096333 626.502495173 432 439 408 262 c 1
 356 427 296.829633897 625.333333333 259 807 c 1
 178.557614449 810.726438275 101.208021996 807.389101718 16 822 c 1
 52 583 10 441 17 11 c 1
 88 -14 136 15 204 -6 c 1
 199 126 199 249 218 381 c 1
EndSplineSet
EndChar

StartChar: O
Encoding: 79 79 14
Width: 645
Flags: HW
LayerCount: 2
Back
Fore
SplineSet
248 385 m 24
 250 311 248 216 328 214 c 0
 390.012873681 212.449678158 401 320 399 396 c 24
 397 469 382.05388954 559.720421411 320 564 c 0
 262 568 246 460 248 385 c 24
18 408 m 0
 16.8016250427 558.995244619 94.019419871 809.929520093 311 813 c 0
 523 816 617.989874668 608.99228258 620 412 c 0
 621 314 528.006356095 0.509362006467 308 3 c 0
 43 6 19 282 18 408 c 0
EndSplineSet
EndChar

StartChar: P
Encoding: 80 80 15
Width: 529
Flags: HW
LayerCount: 2
Back
Fore
SplineSet
211 535 m 17
 299 526 334 553 331 611 c 0
 328.106854047 666.934155098 290 714 209 685 c 9
 211 535 l 17
44 11 m 25
 24 770 l 2
 23.0496357683 806.066322593 160.994117851 818 246 818 c 0
 435 818 501.589926787 778.019824504 506 638 c 0
 510 511 340 387 217 392 c 9
 206 2 l 1
 44 11 l 25
EndSplineSet
EndChar

StartChar: Q
Encoding: 81 81 16
Width: 794
Flags: HW
LayerCount: 2
Back
Fore
SplineSet
438 363 m 1
 458 398 457.010433957 424.087858699 456 464 c 0
 454 543 419 673 309 678 c 0
 228.058886111 681.67914154 208 519 208 457 c 0
 208 352.92310535 253 220 296 218 c 0
 336.069024363 216.136324448 350 228 362 244 c 1
 329.466269221 288.484383569 297.984933996 310.98143542 266 344 c 1
 301 371 294.263899106 412.534603369 330 436 c 1
 376.656891998 423.783330577 403.140799949 388.630399079 438 363 c 1
726 142 m 1049
633 -8 m 1
 602 38 565.033708855 78.3379024057 513 119 c 1
 487 70 363.007396346 -1.6647631489 303 -2 c 0
 124 -3 17.3215269364 204.008134106 12 408 c 0
 6 638 134.898334282 815 312 815 c 0
 596 815 658.39922266 692.034980297 664 440 c 0
 666 350 658 286 608 224 c 1
 676 199 723 149 778 101 c 1
 717.487948994 72.9811077809 678.843019063 30.0334771348 633 -8 c 1
EndSplineSet
EndChar

StartChar: R
Encoding: 82 82 17
Width: 570
Flags: HW
LayerCount: 2
Back
Fore
SplineSet
179 527 m 1
 232 531 l 18
 253.970703125 532.440429688 329 576 329 617 c 0
 329 657.199502484 288 694 260 694 c 10
 180 694 l 25
 179 527 l 1
18 9 m 9
 26 810 l 25
 363 810 l 2
 407 810 535 779 535 594 c 0
 535 463.137148699 412 359 286 366 c 1
 365 238 431 241 558 15 c 1
 487.435464509 -14.5262702817 404.608050176 14.7509194992 327 19 c 1
 281 80 242 160 198 210 c 1
 206.104481672 116.117730821 199.271895752 75.0133892373 200 15 c 1
 143.594451861 1.3506716544 87.4093241615 -12.9012567038 18 9 c 9
EndSplineSet
EndChar

StartChar: S
Encoding: 83 83 18
Width: 583
Flags: HW
LayerCount: 2
Back
Fore
SplineSet
10 98 m 1
 122 208 l 17
 180 179 198 156 266 154 c 0
 327.365234375 152.1953125 387.284179688 193.346679688 380 264 c 0
 370 361 323.145507812 333.934570312 240 333 c 0
 151 332 78.693359375 420.711914062 78 531 c 0
 77 690 187 816 334 813 c 0
 382.5390625 812.009765625 419 807 452 770 c 26
 528 685 l 25
 418 591 l 25
 388 627 l 26
 365 654 349.099609375 660 304 660 c 0
 236 660 207.0859375 622.001953125 208 569 c 0
 209 511 224 472 287 471 c 0
 345.000976562 470.079101562 348.954101562 484.522460938 390 485 c 0
 476 486 569.708984375 383.001953125 569 276 c 0
 568 125 455.030273438 0.2353515625 274 -2 c 0
 193 -3 168.703125 7.48046875 145 21 c 10
 10 98 l 1
EndSplineSet
EndChar

StartChar: T
Encoding: 84 84 19
Width: 697
Flags: HW
LayerCount: 2
Back
Fore
SplineSet
251 4 m 17
 218.305713035 214.710603861 251.739177054 413.381721345 258 617 c 9
 18 610 l 25
 10 777 l 17
 83 809 592 812 673 806 c 1
 656.419693659 744.505029573 677.606886432 678.821180056 682 615 c 1
 594.885511599 617.549440564 515.119936737 613.913260612 444 603 c 9
 446 12 l 25
 251 4 l 17
EndSplineSet
EndChar

StartChar: U
Encoding: 85 85 20
Width: 622
Flags: HW
LayerCount: 2
Back
Fore
SplineSet
10 808 m 25
 15 434 l 18
 16.6982723497 306.96922824 123.795769993 8.76734963648 276 6 c 10
 386 4 l 18
 498.771471721 1.94960960508 597.080651319 288.008714206 598 385 c 10
 602 807 l 25
 428 803 l 1
 432 510 377.006233451 233.257603434 341 234 c 0
 244 236 196 434 200 638 c 1
 175.522042228 695.348849167 172.408066379 750.27129834 171 805 c 1
 10 808 l 25
EndSplineSet
EndChar

StartChar: V
Encoding: 86 86 21
Width: 814
Flags: HW
LayerCount: 2
Back
Fore
SplineSet
2 784 m 5
 96 480 218 255 332 6 c 9
 514 1 l 17
 636 272 620 364 790 814 c 1
 728.933306961 795.471819167 645.662875316 799.620789187 570 796 c 1
 554.631115256 616.088100758 486.794912748 454.634432985 428 290 c 1
 354.833007812 454.748046875 260.506835938 608.963867188 206 783 c 5
 145.054140638 786.514716701 93.1354252306 794.10063174 2 784 c 5
EndSplineSet
EndChar

StartChar: W
Encoding: 87 87 22
Width: 1276
Flags: HW
LayerCount: 2
Back
Fore
SplineSet
11.505859375 779.102539062 m 1
 99.9658203125 501.26171875 229.8828125 261.911132812 338.7890625 3.0517578125 c 9
 538.422851562 17.02734375 l 17
 557.213867188 101.618164062 588.72265625 180.662109375 630.16015625 255.374023438 c 1
 657.993164062 167.453125 681.857421875 71.4384765625 720.905273438 6.3896484375 c 9
 900.934570312 8.673828125 l 17
 1044.93847656 265.942382812 1152.22558594 526.403320312 1252.97070312 787.434570312 c 9
 997.21875 804.51953125 l 17
 924.759765625 644.868164062 871.33984375 467.770507812 781.868164062 323.7109375 c 1
 706.561523438 417.139648438 674.817382812 500.16015625 638.38671875 592.8671875 c 1
 568.798828125 509.69140625 512.44140625 424.697265625 458.122070312 339.421875 c 1
 392.09765625 492.274414062 308.493164062 641.383789062 223.166992188 792.498046875 c 1
 152.275390625 789.125976562 74.595703125 807.747070312 11.505859375 779.102539062 c 1
EndSplineSet
EndChar

StartChar: X
Encoding: 88 88 23
Width: 867
Flags: HW
LayerCount: 2
Back
Fore
SplineSet
15 25 m 1
 222 415 l 17
 178 539 81 650 27 784 c 1
 76.3773274447 799.947734878 153.507559209 791.575873193 240 775 c 1
 289.574188692 673.413111386 366.563900195 606.743147803 438 533 c 1
 492.139581277 631.169183127 550.677356172 727.032676315 630 812 c 1
 702.618394433 790.074714588 769.827575712 798.982847229 840 791 c 1
 782 669 700 549 613 433 c 1
 648 286 711.020456329 143.500152524 774 8 c 1
 707.666666667 11.0103585044 641.333333333 3.48351103666 575 19 c 1
 526.247088102 102.668459462 485.402136441 194.483815266 420 261 c 1
 368 157 280 95 226 -4 c 1
 143 17 48 0 15 25 c 1
EndSplineSet
EndChar

StartChar: Y
Encoding: 89 89 24
Width: 769
Flags: HW
LayerCount: 2
Back
Fore
SplineSet
10 804 m 1
 99.4802849672 648.43114282 193.488178437 494.051778228 323 349 c 1
 340 234 342 125 346 11 c 1
 412.524419426 8.90392225859 493.21468807 -12.6702077422 541 11 c 1
 523.577562174 121.886146911 502.578537176 233.273125348 522 339 c 1
 551.415289971 456.366456873 692.93684369 676.066278203 758 782 c 1
 667.666992188 787.200195312 571.333333333 773.420808788 481 795 c 1
 455.525815441 696.151373346 426.891489754 598.550580893 388 505 c 1
 330.810656689 601.273542829 259.236983187 699.106829898 224 793 c 1
 150 794 78.0064245228 817.030022818 10 804 c 1
EndSplineSet
EndChar

StartChar: Z
Encoding: 90 90 25
Width: 651
Flags: HW
LayerCount: 2
Back
Fore
SplineSet
38 4 m 1
 43.2001953125 59.1875 41.3402839553 120.154838731 36 178 c 1
 181.174385882 285.042079636 279.710440973 438.923065702 390 581 c 1
 15 588 l 1
 12 814 l 1
 212.820914673 798.031880913 406.827426395 799.196348855 597 810 c 1
 640.348802248 724.284577024 626.383228989 645.817273389 631 565 c 1
 565 449 430 337 328 216 c 9
 599 218 l 1
 600.243801257 154 610.885742188 81 615 17 c 1
 409.736706821 22.9449864841 225.34600537 12.2978740163 38 4 c 1
EndSplineSet
EndChar

